/* XPM */
static char *eac06c7ce79b4828cbb0b9a1c9990ab79Bak7s1p2GgmJRZt[] = {
/* columns rows colors chars-per-pixel */
"64 64 3 1 ",
"  c black",
". c green",
"X c #F3C939",
/* pixels */
"................................................................",
"................................................................",
"................................................................",
"................................................................",
"................................................................",
"................................................................",
"................................................................",
"................................................................",
"................................................................",
"................................................................",
"................................................................",
"................................................................",
"................................................................",
"................................................................",
"................................................................",
"................................................................",
"................................................................",
"................................................................",
"................................................................",
"................................................................",
"............................... ................................",
".............................. X ...............................",
"............................. XXX ..............................",
"............................. XXX ..............................",
"............................ XXXXX .............................",
"............................ XXXXX .............................",
"......................      XXXXXXX      .......................",
"...................... XXXXXX XXX XXXXXX .......................",
"....................... XXXXX XXX XXXXX ........................",
"........................ XXXX XXX XXXX .........................",
"......................... XXXXXXXXXXX ..........................",
".......................... XXXXXXXXX ...........................",
".......................... XXXXXXXXX ...........................",
"......................... XXXXXXXXXXX ..........................",
"......................... XXXX   XXXX ..........................",
"........................ XXX  ...  XXX .........................",
"........................ XX ....... XX .........................",
"........................   .........   .........................",
"................................................................",
"................................................................",
"................................................................",
"................................................................",
"................................................................",
"................................................................",
"................................................................",
"................................................................",
"................................................................",
"................................................................",
"................................................................",
"................................................................",
"................................................................",
"................................................................",
"................................................................",
"................................................................",
"................................................................",
"................................................................",
"................................................................",
"................................................................",
"................................................................",
"................................................................",
"................................................................",
"................................................................",
"................................................................",
"................................................................"
};
