/* XPM */
static char *dcf0d74f91f547aecf75c1c2dddedec6Eh57lCubWGchrxvB[] = {
/* columns rows colors chars-per-pixel */
"64 64 3 1 ",
"  c black",
". c green",
"X c #F3C939",
/* pixels */
"................................................................",
"................................................................",
"................................................................",
"................................................................",
"................................................................",
"................................................................",
"................................................................",
"................................................................",
"................................................................",
"................................................................",
"................................................................",
"................................................................",
"................................................................",
"................................................................",
"................................................................",
"................................................................",
".............................. .................................",
"............................. X ................................",
"............................ XXX ...............................",
"............................ XXX ...............................",
"........................... XXXXX ..............................",
"........................... XXXXX ..............................",
".....................      XXXXXXX      ........................",
"..................... XXXXXX XXX XXXXXX ........................",
"...................... XXXXX XXX XXXXX .........................",
"....................... XXXX XXX XXXX ..........................",
"........................ XXXXXXXXXXX ...........................",
"......................... XXXXXXXXX ............................",
"......................... XXXXXXXXX ............................",
"........................ XXXXXXXXXXX ...........................",
"........................ XXXX   XXXX ...........................",
"....................... XXX  ...  XXX ..........................",
"....................... XX ....... XX ..........................",
".......................   .........   ..........................",
"................................................................",
"................................................................",
"................................................................",
"................................................................",
"................................................................",
"................................................................",
"................................................................",
"................................................................",
"................................................................",
"................................................................",
"................................................................",
"................................................................",
"................................................................",
"................................................................",
"................................................................",
"................................................................",
"................................................................",
"................................................................",
"................................................................",
"................................................................",
"................................................................",
"................................................................",
"................................................................",
"................................................................",
"................................................................",
"................................................................",
"................................................................",
"................................................................",
"................................................................",
"................................................................"
};
