/* XPM */
static char *result[] = {
/* columns rows colors chars-per-pixel */
"32 32 14 1 ",
"  c #9A0000",
". c #920F0F",
"X c #9E1616",
"o c #A51111",
"O c #B01C1C",
"+ c #BF2525",
"@ c #AC3232",
"# c #B83030",
"$ c #CB1919",
"% c red",
"& c #BFB9B9",
"* c #F0BDBD",
"= c #ECD8D8",
"- c white",
/* pixels */
"XXXXXXXXXXX&*      XXXXXXXXXXXXX",
"XXXXXXXXXX   %%%%%%   @@@@@@$$$$",
"X$$$$O## o%%%%%%%%%===  @@@@@$$$",
"$$$$O@@ =%%%%%%%%%%%==== @@@@@@$",
"$OO@@  ==--%%%%%%%%%=====  @@@@#",
"OO@@ ===--=%%%%%%%%%=====%% @@##",
"O@@@ ===--==%%%%%%%%=====%% @###",
"O@@ ===--====%%%%%%%=====%%% #++",
"O@ ===--=====%%%%%%=====%%%%% ++",
"XX ===--======%%%%%=====%%%%%oXX",
"& ===--=======%%%%=====%%%%%%% &",
"* ==---%%======%%%====%%%%%%%= *",
"X %%--%%%%%%===%%===%%%%%%%%== X",
" %%---%%%%%%%%=%%=%%%%%%%%%==== ",
" %%--%%%%%%%%%%%%%%%%%%%%%===== ",
" %%--%%%%%%%%%%%%%%%%%%%%====== ",
" %%--%%%%%%%===%%%==%%%======== ",
" %%--%%======%%%=%============= ",
" %%---======%%%%=%%============ ",
"Oo%=--======%%%%=%%%========== &",
"& ==---====%%%%==%%%%%======== &",
"* ===--===%%%%%==%%%%%%======= *",
"XX ==--==%%%%%====%%%%%%%%=== XX",
"$$ ===--=%%%%%====%%%%%%%%%%% $$",
"$O# ===-%%%%%%=====%%%%%%%%% #$$",
"OO#@ ==--%%%%=======%%%%%%% @##$",
"##@@ ==%--%%%========%%%%%% @#oo",
"@@@@@  %%--%%==========%%  @#ooo",
"O@@@@OO %%%%%===========o@@ooooO",
"OO@@@O##o %%%%========  oOOOOOOO",
".OO@OO####   %=====   XXXXXXXOOO",
"XXOXXXXXXXX*&      XXXXXXXXXXXXX"
};
