/* XPM */
static char *_e4b996514804aa6da36a198eb453771CKA6N4xTbnt8UaEN[] = {
/* columns rows colors chars-per-pixel */
"32 32 17 1 ",
"  c black",
". c #920F0F",
"X c #9E1616",
"o c #A51717",
"O c #B01C1C",
"+ c #BF2525",
"@ c #AC3232",
"# c #B83030",
"$ c #CB1919",
"% c #509023",
"& c #6A9A64",
"* c #BFB9B9",
"= c #EDB48D",
"- c #F0BDBD",
"; c #F1CFCF",
": c #E9D9D9",
"> c white",
/* pixels */
"XXXXXXXXXXX*-XXXXXXXXXXXXXXXXXXX",
"XXXXXXX   X*-XXXOOXXO@@@@@@@$$$$",
"X$$$$O#     -XXO##O@@@@@@@@@@$$$",
"$$$$O@@@ %% -XX##@@@@@@@@@@@@@@$",
"$OO@@@@@  %  X###@@@@@@@@@@@@@@#",
"OO@@@@@@@ %%  ###@@@@@@@@@@@@@##",
"O@@@@@@@@  %%  #@@@@@@@@@@@@@###",
"O@@@@@@@## %%& ##@@@@@@@@@@@##++",
"O@@@@@@@#X %%&  ##XXXXXX@@@###++",
"XXXXXXXXXXX %%& XXXXXXXXXXXXXXXX",
"*********** %%& ---------------*",
"-----------  %&  ---***********-",
"XXXXXXXXXXXX %%& XX-*XXXXXXXXXXX",
"$$$$XXOOOOOO %%& XX-*XXXO@OOOO$$",
"$$$OOOOO@@@@ %%& XX-*XX@@@@@OOO$",
"$$OO@@@@@@@@ %%& #X-*X@@@@OOOOOO",
"OOO@@@@@@@@@ %%&  X-*XX@@@OOOOOO",
"OO@@@@@@@@@@  %&&> -*XXO@@@##OOO",
"XXOO@@@@@@@@ >%%& X-*XXXX####OOO",
"OXXXOXXXXXXX  ::: X-*XXXXXXXXXXX",
"*------------ ::; --************",
"-***********- ::   -------------",
"XXXXXXXXXXX*- ::::: XXXXXXXXXXXX",
"$$XXX###XXX*- ;::   XXXXXXXXX$$$",
"$O##@####OX*- ;:::: OO@@@@@@##$$",
"OO#@@OO###X*- ;;::: O@@@@@@@@##$",
"##@@@@OO#XX*-  ==  O@@@@@@@@@#oo",
"@@@@@@@O#XX* X#  O@ @@@@@@@@#ooo",
"O@@@@OO##XX -XX#OOOO @@@@@@ooooO",
"OO@@@O##+XX -XXO###o ooooOOOOOOO",
".OO@OO####X -XOXXOXX XXXXXXXXOOO",
"XXOXXXXXX   *XXXXXXX   XXXXXXXXX"
};
