/* XPM */
static char *e40752c789564687f733e07e9626a911wEwauMbYMIvzd87v[] = {
/* columns rows colors chars-per-pixel */
"32 32 18 1 ",
"  c black",
". c #141613",
"X c #920F0F",
"o c #9E1616",
"O c #A51717",
"+ c #B01C1C",
"@ c #BF2525",
"# c #AC3232",
"$ c #B83030",
"% c #CB1919",
"& c #509023",
"* c #6A9A64",
"= c #BFB9B9",
"- c #EDB48D",
"; c #F0BDBD",
": c #F1CFCF",
"> c #E9D9D9",
", c white",
/* pixels */
"ooooooooooo=;ooooooooooooooooooo",
"ooooooooooo=;ooo++oo+#######%%%%",
"o%%%%+$$......o+$$+##########%%%",
"%%%%+####.***.o$$##############%",
"%++######.&&* $$$##############$",
"++#######$o &* $$#############$$",
"+########$o &&* #############$$$",
"+#######$$o  &* $###########$$@@",
"+#######$oo= &*  $oooooo###$$$@@",
"ooooooooooo= &&* ooooooooooooooo",
"============ &&* ;;;;;;;;;;;;;;=",
";;;;;;;;;;;;  &*  ;;===========;",
"ooooooooooooo &&* o;=ooooooooooo",
"%%%%oo+++++++ &&* o;=ooo+#++++%%",
"%%%+++++##### &&* o;=oo#####+++%",
"%%++######### &&* o;=o####++++++",
"+++########## &&*  ;=oo###++++++",
"++###########  &**, =oo+###$$+++",
"oo++######### ,&&* ;=oooo$$$$+++",
"+ooo+oooooooo  >>> ;=ooooooooooo",
"=;;;;;;;;;;;;; >>: ;============",
";===========;; >>   ;;;;;;;;;;;;",
"ooooooooooo=;o >>>>> ooooooooooo",
"%%ooo$$$ooo=;o :>>   oooooooo%%%",
"%+$$#$$$$+o=;o :>>>> +######$$%%",
"++$##++$$$o=;o ::>>> ########$$%",
"$$####++$oo=;o  --  #########$OO",
"#######+$oo=  $$  ## #######$OOO",
"+####++$$oo ;oo$++++ ######OOOO+",
"++###+$$@oo ;oo+$$$O OOOO+++++++",
"X++#++$$$$o ;o+oo+oo oooooooo+++",
"oo+oooooo   =ooooooo   ooooooooo"
};
