/* XPM */
static char *f21eb7035c9b4e27dcb65ecfc13a9c9e1Xw7JxrcA12FE72N[] = {
/* columns rows colors chars-per-pixel */
"32 32 18 1 ",
"  c black",
". c #0B1417",
"X c #142429",
"o c #65000B",
"O c #920F0F",
"+ c #9E1616",
"@ c #A51717",
"# c #B01C1C",
"$ c #BF2525",
"% c #AC3232",
"& c #B83030",
"* c #CB1919",
"= c #BF7540",
"- c #296C83",
"; c #BFB9B9",
": c #E5B490",
"> c #F0BDBD",
", c #93B7C3",
/* pixels */
"+++++++++++;>+++++++++++++++++++",
"+++++++++++;>+++##++#%%%%%%%****",
"+****#&&&&+;>++#&&#%%%%%%%%%%***",
"****#%%%%&+;>++&&%%%%%%%%%%%%%%*",
"*##%%%%%%&+;>+&&&%%%%%%%%%%%%%%&",
"##%%%%%%%ooooooooooooo%%%%%%%%&&",
"#%%%%%%%oooooooooooooooo%%%%%&&&",
"#%%%%%%oooooooooooooooooo%%%&&$$",
"#%%%%%%oooooooooooooooooo%%&&&$$",
"+++++++ooooo========ooooo+++++++",
";;;;;;;ooo============ooo>>>>>>;",
">>>>>>>>oo============ooo;;;;;;>",
"++++++++:o=   ::::   ==o:+++++++",
"****++##:o=   ::::   ==o:%####**",
"***#####===   ::::   ====%%%###*",
"**##%%%%===   ::::   ====%######",
"###%%%%%====::::::::====%%######",
"##%%%%%%%===::::::::====%%%&&###",
"++##%%%%% ::::::::::::= +&&&&###",
"#+++#++++  ::::::::::   ++++++++",
";>>>>>>>>-            --;;;;;;;;",
">;;;;;;;----------------->>>>>>>",
"++++++++-----------------+++++++",
"**+++&&&-----------------++++***",
"*#&&%&&==---------------==%%&&**",
"##&%%##==------,,,,,,---==%%%&&*",
"&&%%%%##&+.XX.......XX.%%%%%%&@@",
"%%%%%%%#&+.XX.......XX.%%%%%&@@@",
"#%%%%##&&+.XX.......XX.%%%%@@@@#",
"##%%%#&&$+..X.......X..@@#######",
"O##%##&&&&..X... ...X..++++++###",
"++#+++++++...... ......+++++++++"
};
